<?xml version="1.0" encoding="UTF-8"?>
<svg 
    id="b" xmlns="http://www.w3.org/2000/svg" 
    width="221.62" height="221.62" viewBox="0 0 221.62 221.62">
    <style>
    path {
    fill: black;
    }

    @media (prefers-color-scheme: dark) {
        path {
        fill: white;
        }
    }
    </style>
    <g id="c">
        <path 
        d="M110.81,78.43c17.86,0,32.38,14.53,32.38,32.38s-14.53,32.38-32.38,32.38-32.38-14.53-32.38-32.38,14.53-32.38,32.38-32.38M110.81,68.43c-23.41,0-42.38,18.98-42.38,42.38s18.98,42.38,42.38,42.38,42.38-18.98,42.38-42.38-18.98-42.38-42.38-42.38h0ZM110.81,2c29.06,0,56.39,11.32,76.94,31.87,20.55,20.55,31.87,47.88,31.87,76.94s-11.32,56.39-31.87,76.94c-20.55,20.55-47.88,31.87-76.94,31.87s-56.39-11.32-76.94-31.87C13.32,167.2,2,139.87,2,110.81s11.32-56.39,31.87-76.94C54.42,13.32,81.74,2,110.81,2M110.81,0C49.61,0,0,49.61,0,110.81s49.61,110.81,110.81,110.81,110.81-49.61,110.81-110.81S172.01,0,110.81,0h0Z"/>
    </g>
</svg>